<svg
  width="8"
  height="10"
  viewBox="0 0 8 10"
  fill="none"
  xmlns="http://www.w3.org/2000/svg"
>
  <path
    fillRule="evenodd"
    clipRule="evenodd"
    d="M3.8229 9.95939L3.8245 9.96013C3.93714 10.0106 4 9.99881 4 9.99881C4 9.99881 4.06286 10.0106 4.17595 9.95992L4.1771 9.95939L4.18037 9.95786L4.19075 9.95294C4.19934 9.94884 4.21124 9.94307 4.22623 9.93563C4.25621 9.92075 4.2986 9.89915 4.35162 9.8707C4.45759 9.81382 4.60641 9.72935 4.7838 9.61619C5.13785 9.39034 5.60992 9.04751 6.08313 8.57805C7.02981 7.63886 8 6.17131 8 4.11716C8 1.84331 6.20914 0 4 0C1.79086 0 0 1.84331 0 4.11716C0 6.17131 0.970189 7.63886 1.91687 8.57805C2.39008 9.04751 2.86215 9.39034 3.2162 9.61619C3.39359 9.72935 3.54241 9.81382 3.64838 9.8707C3.7014 9.89915 3.74379 9.92075 3.77377 9.93563C3.78876 9.94307 3.80066 9.94884 3.80925 9.95294L3.81963 9.95786L3.8229 9.95939ZM3.99915 5.44362C4.73003 5.44362 5.32253 4.85113 5.32253 4.12025C5.32253 3.38937 4.73003 2.79688 3.99915 2.79688C3.26828 2.79688 2.67578 3.38937 2.67578 4.12025C2.67578 4.85113 3.26828 5.44362 3.99915 5.44362Z"
    fill="#999999"
  />
</svg>
