<svg
  width="104"
  height="24"
  viewBox="0 0 104 24"
  fill="none"
  xmlns="http://www.w3.org/2000/svg"
>
  <path
    d="M96.1946 4.41556C97.3011 5.47772 97.9167 6.91163 97.9167 8.4C97.9167 12.9745 99.1322 15.6828 100.185 17.1639C100.185 17.1711 100.184 17.1797 100.182 17.1895C100.178 17.2083 100.172 17.228 100.164 17.2468C100.164 17.2479 100.163 17.249 100.163 17.25H83.8374C83.8369 17.249 83.8365 17.2479 83.836 17.2468C83.8281 17.228 83.8221 17.2083 83.8184 17.1895C83.8164 17.1797 83.8152 17.1711 83.8146 17.1639C84.8678 15.6828 86.0833 12.9745 86.0833 8.4C86.0833 6.91164 86.6989 5.47772 87.8054 4.41556C88.9128 3.3524 90.4211 2.75 92 2.75C93.5789 2.75 95.0872 3.3524 96.1946 4.41556Z"
    stroke="#1C1C1C"
    strokeWidth="1.5"
    strokeLinecap="round"
    strokeLinejoin="round"
  />
  <path
    fillRule="evenodd"
    clipRule="evenodd"
    d="M89.0192 19.6744C89.3371 19.4089 89.8101 19.4513 90.0756 19.7692C90.2361 19.9613 90.4905 20.1476 90.836 20.2858C91.18 20.4234 91.5822 20.5 92 20.5C92.4178 20.5 92.82 20.4234 93.164 20.2858C93.5095 20.1476 93.764 19.9613 93.9244 19.7692C94.19 19.4513 94.6629 19.4089 94.9808 19.6744C95.2987 19.94 95.3412 20.4129 95.0756 20.7308C94.7279 21.1471 94.2531 21.4657 93.7211 21.6785C93.1876 21.8919 92.5949 22 92 22C91.4052 22 90.8125 21.8919 90.279 21.6785C89.747 21.4657 89.2721 21.1471 88.9244 20.7308C88.6589 20.4129 88.7013 19.94 89.0192 19.6744Z"
    fill="#1C1C1C"
  />
</svg>