<svg
  width="24"
  height="24"
  viewBox="0 0 24 24"
  fill="none"
  xmlns="http://www.w3.org/2000/svg"
>
  <path
    d="M11.2422 21.2422H21.2422"
    stroke="white"
    strokeWidth="1.5"
    stroke-linecap="round"
    stroke-linejoin="round"
  />
  <path
    d="M20.7439 5.69986L21.2742 6.23019L20.7439 5.69986L6.2891 20.1546L3.03078 20.9692L3.84536 17.7109L18.3001 3.25612C18.6242 2.93206 19.0637 2.75 19.522 2.75C19.7489 2.75 19.9736 2.7947 20.1833 2.88154C20.3929 2.96837 20.5834 3.09566 20.7439 3.25612C20.9043 3.41657 21.0316 3.60707 21.1185 3.81672C21.2053 4.02636 21.25 4.25106 21.25 4.47799C21.25 4.70491 21.2053 4.92961 21.1185 5.13926C21.0316 5.34891 20.9043 5.5394 20.7439 5.69986Z"
    stroke="white"
    strokeWidth="1.5"
    stroke-linecap="round"
    stroke-linejoin="round"
  />
</svg>
